<svg height="174" viewBox="0 0 174 174" width="174" xmlns="http://www.w3.org/2000/svg"><g fill="#37375f" transform="translate(26 9)"><path d="m65.03 97.19 39.76-12.85 9.55-31.68-47.44 14.09z" opacity=".75"/><path d="m65.03 97.19 1.87-30.44-66.48-10.04 10.47 32.18z"/><path d="m10.89 93.63v44.99l53.97 8.16v-45.03z"/><path d="m74.87 125.09c-2.46-.42-4.38-3.9-4.38-8.12 0-4.51 2.19-8.17 4.89-8.17.1065982-.005404.2134018-.005404.32 0h.14.07l6.92 1.07c.74-2.94 2.48-5 4.51-5h.32.14.06l7.16 1.1c.74-3 2.48-5 4.51-5h.33.14.06l4.57.7v-12.78l-39.77 12.86v45l20.85-6.71v-13.29z" opacity=".75"/><path d="m94.87 128.15v1.7 7.27l2.79-.9v-7.64z" opacity=".75"/><path d="m114.44 124.25c-.394662-.000765-.788846-.02749-1.18-.08-.300005.243283-.637802.435827-1 .57-.154416.059713-.31565.100021-.48.12-.16634.014752-.33366.014752-.5 0-.136473.010277-.273527.010277-.41 0l-.93-.14v18.78c-.078907 1.689147.777321 3.284873 2.228428 4.153051s3.262037.868178 4.713144 0 2.307335-2.463904 2.228428-4.153051v-21.43c-.11 1.21-2.11 2.18-4.67 2.18z"/><path d="m126.94 107.17c.020382.02778.037181.058018.05.09-.012819-.031982-.029618-.06222-.05-.09z"/><path d="m127.25 107.74.06.14z"/><path d="m127.51 108.36c0 .06.05.13.08.2s-.05-.14-.08-.2z"/><path d="m127.75 109c0 .08.05.17.08.26-.03-.07-.05-.16-.08-.26z"/><path d="m123.94 121c1.64-.28 3-1.92 3.79-4.23-.73 2.29-2.15 3.93-3.79 4.23z"/><path d="m126.61 106.65s.02.02 0 0z"/><path d="m128.23 111.23v.5c.03-.17.02-.34 0-.5z"/><path d="m128.3 112v.82c.02-.25.01-.52 0-.82z"/><path d="m128 109.72c0 .11.05.22.07.33-.07-.11-.07-.22-.07-.33z"/><path d="m128.11 110.46.06.4z"/><path d="m128.1 115.28c-.090233.497742-.213845.988851-.37 1.47.156155-.481149.279767-.972258.37-1.47z"/><path d="m123.63 104.7c.852214.079033 1.647432.462441 2.24 1.08-.592568-.617559-1.387786-1.000967-2.24-1.08z" opacity=".75"/><path d="m127.83 109.28.12.44z" opacity=".75"/><path d="m128 110.05.09.41z" opacity=".75"/><path d="m127 107.26c.09.16.18.31.26.48-.09-.17-.18-.32-.26-.48z" opacity=".75"/><path d="m128.17 110.86.06.37z" opacity=".75"/><path d="m126.27 106.21c.12.14.23.29.34.44-.11-.15-.22-.3-.34-.44z" opacity=".75"/><path d="m123 121c.149587.015741.300413.015741.45 0-.149587.015741-.300413.015741-.45 0z" opacity=".75"/><path d="m128.27 111.73v.3z" opacity=".75"/><path d="m127.59 108.56c0 .15.11.3.16.46-.05-.16-.11-.31-.16-.46z" opacity=".75"/><path d="m126.65 106.7c.1.15.2.31.29.47-.09-.17-.19-.32-.29-.47z" opacity=".75"/><path d="m127.31 107.88c.07.16.14.31.2.48-.06-.17-.13-.36-.2-.48z" opacity=".75"/><path d="m125.87 105.78c.137401.12943.267597.266303.39.41-.122403-.143697-.252599-.28057-.39-.41z" opacity=".75"/><path d="m128.3 112v-.3c0-.17 0-.34 0-.5l-.06-.37-.06-.4-.09-.41c0-.11 0-.22-.07-.33l-.12-.44c0-.09-.05-.18-.08-.26s-.11-.31-.16-.46-.05-.14-.08-.2-.13-.32-.2-.48l-.06-.14c-.08-.17-.17-.32-.26-.48-.012819-.031982-.029618-.06222-.05-.09-.09-.16-.19-.32-.29-.47s0 0 0 0-.22-.3-.34-.44c-.122403-.143697-.252599-.28057-.39-.41-.592568-.617559-1.387786-1.000967-2.24-1.08h-.19c-2.7 0-4.89 3.66-4.89 8.17 0 4.26 1.95 7.75 4.44 8.13.149587.015741.300413.015741.45 0 .166336.014857.333664.014857.5 0 1.64-.28 3-1.92 3.79-4.23.156155-.481149.279767-.972258.37-1.47.151153-.801062.224826-1.614816.22-2.43-.12-.34-.13-.61-.14-.91z" opacity=".75"/><path d="m74.15 47.69c5.0234211 0 9.5522038-3.0260359 11.4745838-7.6670718s.8597775-9.9830993-2.6923176-13.5351944-8.8941585-4.6146976-13.5351944-2.6923176-7.6670718 6.4511627-7.6670718 11.4745838c0 6.8593766 5.5606234 12.42 12.42 12.42z"/><path d="m55.72 34.66-19.89-11.08-11.08 19.89 10.88 6.06 10.89 1.64z"/><path d="m65.31.05-28.73 9.3 22.59 17.75z"/><path d="m114.34 52.66-7.53-10.45-41.21 11.82 1.3 12.72z" opacity=".5"/><path d="m65.6 54.03-19.08-2.86-10.89-1.64-27.11-4.08-8.1 11.26 66.48 10.04z" opacity=".75"/><path d="m102.25 128.14c-.34 0-.67 0-1 0l-.08.06c-.140545.102621-.287512.196146-.44.28-.451832.232485-.9518823.355785-1.46.36h-.09-.36l-1.17-.18v18.81c.1144049 2.44904 2.1332889 4.375816 4.585 4.375816 2.451711 0 4.470595-1.926776 4.585036-4.375816v-21.47c.009964 1.16-2.040036 2.14-4.570036 2.14z"/><path d="m110.79 124.87c.136473.010277.273527.010277.41 0-.136473.010277-.273527.010277-.41 0z"/><path d="m110.79 124.87c.136473.010277.273527.010277.41 0-.136473.010277-.273527.010277-.41 0z" opacity=".75"/><path d="m111.24 124.91c.16634.014752.33366.014752.5 0-.16634.014752-.33366.014752-.5 0z"/><path d="m111.24 124.91c.16634.014752.33366.014752.5 0-.16634.014752-.33366.014752-.5 0z" opacity=".75"/><path d="m111.2 124.9c.16634.014752.33366.014752.5 0 .16435-.019979.325584-.060287.48-.12 1.464577-.654685 2.581054-1.902084 3.07-3.43.09-.22.17-.45.25-.68.153964-.477658.274259-.96552.36-1.46.150725-.801121.224395-1.614835.22-2.43 0-4.51-2.18-8.17-4.88-8.17s-4.89 3.66-4.89 8.17c0 4.25 2 7.75 4.44 8.13.15002.009059.300531.005714.45-.01z" opacity=".75"/><path d="m90.29 132c-2.53 0-4.58-1-4.58-2.18v-3.1 24.53c0 2.529464 2.0505358 4.58 4.58 4.58s4.58-2.050536 4.58-4.58v-21.4c0 1.2-2.05 2.15-4.58 2.15z"/><path d="m101.18 128.15.08-.06z"/><path d="m101.18 128.15.08-.06z" opacity=".75"/><path d="m98.83 128.76h.36z"/><path d="m98.83 128.76h.36z" opacity=".75"/><path d="m99.28 128.79c.5081177-.004215 1.008168-.127515 1.46-.36-.451832.232485-.9518823.355785-1.46.36z"/><path d="m99.28 128.79c.5081177-.004215 1.008168-.127515 1.46-.36-.451832.232485-.9518823.355785-1.46.36z" opacity=".75"/><path d="m99.19 128.79h.09c.5081177-.004215 1.008168-.127515 1.46-.36.152488-.083854.299455-.177379.44-.28l.08-.06c1.71-1.27 2.91-4.14 2.91-7.47 0-4.51-2.19-8.17-4.89-8.17s-4.88 3.66-4.88 8.17c0 4.26 1.95 7.75 4.43 8.14z" opacity=".75"/></g></svg>