<svg width="641" height="156" viewBox="0 0 641 156" xmlns="http://www.w3.org/2000/svg"><title>logo_faucet</title><g fill="none" fill-rule="evenodd"><path fill="#37375F" d="M-26-49h722v254H-26z"/><g style="mix-blend-mode:soft-light" fill-rule="nonzero"><path fill="#FFF" d="M168.38 70.67h51.25v-8.4H158.7v63.5h9.68V97.58h48.69v-8.41h-48.69zm98.81-8.4H255l-36.23 63.5H230l8-14.1h46.94l8 14.1h10.36l-35.82-63-.29-.5zm13 41h-37.4l18.73-32.9 18.67 32.9zM380.75 94c0 3.78 0 7.11-.08 9.89a38.71 38.71 0 0 1-.64 6.8 10.86 10.86 0 0 1-1.65 4.18 6.81 6.81 0 0 1-3.07 2.3 19.31 19.31 0 0 1-5.49 1.16c-2.32.19-5.18.29-8.53.29h-18c-3.37 0-6.24-.1-8.54-.29a19.54 19.54 0 0 1-5.5-1.16 6.72 6.72 0 0 1-3.06-2.29 10.77 10.77 0 0 1-1.61-4.18 40 40 0 0 1-.64-6.82c-.07-2.73-.11-6.05-.11-9.88V62.27h-9.68V94c0 3.62 0 7 .12 10 .05 2.77.358 5.528.92 8.24a20 20 0 0 0 2.62 6.53 14.3 14.3 0 0 0 5.18 4.72 26.69 26.69 0 0 0 8.26 2.71 70.43 70.43 0 0 0 12 .88h18a70.47 70.47 0 0 0 12-.88 26.69 26.69 0 0 0 8.26-2.71 14.24 14.24 0 0 0 5.16-4.72 20.1 20.1 0 0 0 2.59-6.53 45.89 45.89 0 0 0 .95-8.23c.09-3 .14-6.35.14-10V62.27h-9.73l.13 31.73zm96.83-23.56a14.07 14.07 0 0 0-3.51-4.26 18 18 0 0 0-5.47-3 37.57 37.57 0 0 0-7.6-1.65 84.8 84.8 0 0 0-10.27-.53h-18a70.59 70.59 0 0 0-12.05.87 26.69 26.69 0 0 0-8.26 2.72 14.28 14.28 0 0 0-5.18 4.71 20.1 20.1 0 0 0-2.62 6.54 44.27 44.27 0 0 0-.92 8.23c-.08 3-.12 6.34-.12 10s0 7 .12 10a44.29 44.29 0 0 0 .92 8.24 20 20 0 0 0 2.62 6.53 14.39 14.39 0 0 0 5.18 4.72 26.69 26.69 0 0 0 8.26 2.71 70.47 70.47 0 0 0 12.05.88h18a84.62 84.62 0 0 0 10.27-.65 35.63 35.63 0 0 0 7.66-1.73 17.56 17.56 0 0 0 5.48-3.09 14.5 14.5 0 0 0 3.5-4.49 19.65 19.65 0 0 0 1.8-5.82 46.47 46.47 0 0 0 .49-7.1v-1h-9.69v1a48.35 48.35 0 0 1-.27 5.47 12.71 12.71 0 0 1-1 3.78 6.84 6.84 0 0 1-1.9 2.46 9.47 9.47 0 0 1-3.33 1.58 27.23 27.23 0 0 1-5.33.84c-2.13.16-4.7.24-7.66.24h-18c-3.38 0-6.25-.1-8.55-.29a19.47 19.47 0 0 1-5.49-1.16 6.69 6.69 0 0 1-3.06-2.29 10.77 10.77 0 0 1-1.62-4.18 41 41 0 0 1-.64-6.82c-.07-2.74-.1-6.07-.1-9.88 0-3.81 0-7.17.08-9.89a40.28 40.28 0 0 1 .62-6.82 10.63 10.63 0 0 1 1.63-4.17 6.83 6.83 0 0 1 3.09-2.3 19.5 19.5 0 0 1 5.49-1.15c2.3-.2 5.17-.3 8.55-.3h18a94.43 94.43 0 0 1 9.57.4 14.38 14.38 0 0 1 5.9 1.7 7 7 0 0 1 3 3.74 21.65 21.65 0 0 1 1 7.26v1h9.69v-1a40 40 0 0 0-.49-6.57 17.85 17.85 0 0 0-1.84-5.48zm18.03 55.33h63.5v-8.41H505.3V97.58h51.25v-8.41H505.3v-18.5h53.81v-8.4h-63.5zm74.11-63.5v8.4h30.75v55.1h9.69v-55.1h30.75v-8.4z"/><path fill="#B7B7B7" opacity=".75" d="M65.03 97.19l39.76-12.85 9.55-31.68L66.9 66.75z"/><path fill="#FFF" d="M65.03 97.19l1.87-30.44L.42 56.71l10.47 32.18zm-54.14-3.56v44.99l53.97 8.16v-45.03z"/><path d="M74.87 125.09c-2.46-.42-4.38-3.9-4.38-8.12 0-4.51 2.19-8.17 4.89-8.17a3.16 3.16 0 0 1 .32 0h.21l6.92 1.07c.74-2.94 2.48-5 4.51-5h.52l7.16 1.1c.74-3 2.48-5 4.51-5h.53l4.57.7V88.89l-39.77 12.86v45l20.85-6.71v-13.29l-10.84-1.66z" fill="#B7B7B7" opacity=".75"/><path fill="#37375F" opacity=".75" d="M94.87 128.15v8.97l2.79-.9v-7.64z"/><path d="M114.44 124.25a9 9 0 0 1-1.18-.08 3.54 3.54 0 0 1-1 .57 2 2 0 0 1-.48.12 2.83 2.83 0 0 1-.5 0 2.73 2.73 0 0 1-.41 0l-.93-.14v18.78a4.59 4.59 0 1 0 9.17 0v-21.43c-.11 1.21-2.11 2.18-4.67 2.18z" fill="#FFF"/><path d="M126.94 107.17zm.31.57l.06.14-.06-.14zm.26.62c0 .06.05.13.08.2s-.05-.14-.08-.2zm.24.64c0 .08.05.17.08.26-.03-.07-.05-.16-.08-.26zm-3.81 12c1.64-.28 3-1.92 3.79-4.23-.73 2.29-2.15 3.93-3.79 4.23zm2.67-14.35s.02.02 0 0zm1.62 4.58v.5c.03-.17.02-.34 0-.5zm.07.77v.82c.02-.25.01-.52 0-.82zm-.3-2.28c0 .11.05.22.07.33-.07-.11-.07-.22-.07-.33zm.11.74l.06.4-.06-.4zm-.01 4.82z" fill="#37375F"/><path d="M123.63 104.7zm4.2 4.58l.12.44-.12-.44zm.17.77l.09.41-.09-.41zm-1-2.79c.09.16.18.31.26.48-.09-.17-.18-.32-.26-.48zm1.17 3.6l.06.37-.06-.37zm-1.9-4.65zM123 121zm5.27-9.27v.3-.3zm-.68-3.17c0 .15.11.3.16.46-.05-.16-.11-.31-.16-.46zm-.94-1.86zm.66 1.18c.07.16.14.31.2.48a3.16 3.16 0 0 0-.2-.48zm-1.44-2.1z" fill="#37375F" opacity=".75"/><path d="M128.3 112v-.8l-.06-.37-.06-.4-.09-.41c0-.11 0-.22-.07-.33l-.12-.44c0-.09-.05-.18-.08-.26-.03-.08-.11-.31-.16-.46-.05-.15-.05-.14-.08-.2s-.13-.32-.2-.48l-.06-.14c-.08-.17-.17-.32-.26-.48a.41.41 0 0 0-.05-.09 7.39 7.39 0 0 0-.29-.47s-.22-.3-.34-.44a5.16 5.16 0 0 0-.39-.41 3.56 3.56 0 0 0-2.24-1.08h-.19c-2.7 0-4.89 3.66-4.89 8.17 0 4.26 1.95 7.75 4.44 8.13.15.016.3.016.45 0 .166.015.334.015.5 0 1.64-.28 3-1.92 3.79-4.23.156-.481.28-.972.37-1.47a12.7 12.7 0 0 0 .22-2.43c-.12-.34-.13-.61-.14-.91z" fill="#B7B7B7" opacity=".75"/><path d="M74.15 47.69a12.42 12.42 0 1 0-12.42-12.42c0 6.86 5.56 12.42 12.42 12.42zM55.72 34.66L35.83 23.58 24.75 43.47l10.88 6.06 10.89 1.64zM65.31.05l-28.73 9.3L59.17 27.1z" fill="#FFF"/><path fill="#E3E3E3" opacity=".5" d="M114.34 52.66l-7.53-10.45L65.6 54.03l1.3 12.72z"/><path fill="#A1A1A1" opacity=".75" d="M65.6 54.03l-19.08-2.86-10.89-1.64-27.11-4.08-8.1 11.26L66.9 66.75z"/><path d="M102.25 128.14h-1l-.08.06a4.08 4.08 0 0 1-.44.28 3.25 3.25 0 0 1-1.46.36h-.45l-1.17-.18v18.81a4.59 4.59 0 0 0 9.17 0V126c.01 1.16-2.04 2.14-4.57 2.14z" fill="#FFF"/><path d="M111.2 124.9c.166.015.334.015.5 0a2 2 0 0 0 .48-.12 5.64 5.64 0 0 0 3.07-3.43c.09-.22.17-.45.25-.68.154-.478.274-.966.36-1.46.15-.801.224-1.615.22-2.43 0-4.51-2.18-8.17-4.88-8.17-2.7 0-4.89 3.66-4.89 8.17 0 4.25 2 7.75 4.44 8.13.15.01.3.006.45-.01z" fill="#B7B7B7" opacity=".75"/><path d="M90.29 132c-2.53 0-4.58-1-4.58-2.18v-3.1 24.53a4.58 4.58 0 0 0 9.16 0v-21.4c0 1.2-2.05 2.15-4.58 2.15z" fill="#FFF"/><path fill="#37375F" d="M101.18 128.15l.08-.06z"/><path fill="#37375F" opacity=".75" d="M101.18 128.15l.08-.06z"/><path fill="#37375F" d="M98.83 128.76h.36z"/><path fill="#37375F" opacity=".75" d="M98.83 128.76h.36z"/><path d="M99.19 128.79h.09a3.25 3.25 0 0 0 1.46-.36c.152-.084.3-.177.44-.28l.08-.06c1.71-1.27 2.91-4.14 2.91-7.47 0-4.51-2.19-8.17-4.89-8.17-2.7 0-4.88 3.66-4.88 8.17 0 4.26 1.95 7.75 4.43 8.14l.36.03z" fill="#B7B7B7" opacity=".75"/></g></g></svg>